<?xml version="1.0" encoding="UTF-8"?>
<svg width="34px" height="28px" viewBox="0 0 34 28" version="1.1" xmlns="http://www.w3.org/2000/svg" xmlns:xlink="http://www.w3.org/1999/xlink">
    <!-- Generator: Sketch 40.3 (33839) - http://www.bohemiancoding.com/sketch -->
    <title>Untitled 4</title>
    <desc>Created with Sketch.</desc>
    <defs>
        <polygon id="path-1" points="0.000186137813 27 33.0894828 27 33.0894828 0.620179722 0.000186137813 0.620179722"></polygon>
    </defs>
    <g id="Page-1" stroke="none" stroke-width="1" fill="none" fill-rule="evenodd">
        <g>
            <path d="M19.3552,12.2015 L19.3552,12.2015 C19.3142,12.4135 19.1082,12.5515 18.8972,12.5095 L14.7882,11.7015 C14.3882,11.6245 14.1262,11.2405 14.2022,10.8475 C14.2432,10.6355 14.4482,10.4965 14.6602,10.5375 C14.8542,10.5765 14.9862,10.7505 14.9752,10.9425 L19.0472,11.7435 C19.2582,11.7845 19.3962,11.9895 19.3552,12.2015" id="Fill-1" fill="#7345FF"></path>
            <path d="M16.5076,11.2411 L16.7546,9.9731 C16.8326,9.5731 16.5546,9.1801 16.1346,9.0991 C15.7126,9.0171 15.3056,9.2761 15.2286,9.6761 L14.9816,10.9441 L16.5076,11.2411 Z M17.5216,10.1221 L17.2236,11.6511 C17.2126,11.7061 17.1986,11.7571 17.1846,11.8071 C17.1276,12.0011 16.9336,12.1201 16.7356,12.0811 L14.7896,11.7021 C14.3906,11.6251 14.1266,11.2411 14.2036,10.8471 L14.4606,9.5261 C14.6206,8.7031 15.4396,8.1681 16.2836,8.3331 C17.1256,8.4971 17.6816,9.2991 17.5216,10.1221 L17.5216,10.1221 Z" id="Fill-3" fill="#7345FF"></path>
            <path d="M19.2019,12.1718 L19.2019,12.1718 C19.1769,12.2988 19.0549,12.3808 18.9279,12.3568 L14.8179,11.5488 C14.5029,11.4878 14.2959,11.1858 14.3549,10.8778 C14.3799,10.7498 14.5039,10.6668 14.6309,10.6918 C14.7579,10.7158 14.8409,10.8388 14.8149,10.9668 C14.8049,11.0218 14.8479,11.0778 14.9069,11.0888 L19.0169,11.8968 C19.1439,11.9208 19.2269,12.0448 19.2019,12.1718" id="Fill-5" fill="#B57DFF"></path>
            <path d="M16.6306,11.4247 L16.9076,10.0027 C17.0016,9.5187 16.6686,9.0437 16.1636,8.9457 C15.6576,8.8467 15.1686,9.1617 15.0736,9.6457 L14.8176,10.9667 C14.8066,11.0217 14.8486,11.0777 14.9096,11.0897 L16.6306,11.4247 Z M17.3676,10.0917 L17.0696,11.6217 C17.0606,11.6717 17.0476,11.7177 17.0346,11.7637 C17.0006,11.8797 16.8836,11.9507 16.7646,11.9277 L14.8196,11.5497 C14.5046,11.4877 14.2966,11.1857 14.3576,10.8777 L14.6136,9.5557 C14.7576,8.8187 15.4926,8.3377 16.2536,8.4867 C17.0116,8.6337 17.5116,9.3547 17.3676,10.0917 L17.3676,10.0917 Z" id="Fill-7" fill="#B57DFF"></path>
            <path d="M19.5447,16.0585 C19.4917,16.3285 19.3827,16.5815 19.2217,16.8045 C18.9357,17.1975 18.5197,17.4445 18.0517,17.4975 L14.8967,17.8625 C14.6827,17.8875 14.4887,17.7345 14.4637,17.5195 C14.4397,17.3035 14.5927,17.1125 14.8077,17.0865 L17.9627,16.7225 C18.2107,16.6935 18.4337,16.5595 18.5897,16.3445 C18.7537,16.1195 18.8247,15.8335 18.7907,15.5435 L18.7747,15.4095 C18.7067,14.8195 18.2247,14.3895 17.6997,14.4495 L14.5447,14.8145 C14.3307,14.8385 14.1367,14.6845 14.1117,14.4715 C14.0877,14.2545 14.2407,14.0625 14.4547,14.0385 L17.6107,13.6745 C18.5637,13.5635 19.4337,14.3025 19.5517,15.3185 L19.5667,15.4535 C19.5907,15.6595 19.5827,15.8635 19.5447,16.0585" id="Fill-9" fill="#7345FF"></path>
            <path d="M19.3913,16.0287 C19.3433,16.2757 19.2433,16.5087 19.0953,16.7117 C18.8343,17.0697 18.4573,17.2937 18.0343,17.3427 L14.8783,17.7077 C14.7503,17.7227 14.6333,17.6307 14.6193,17.5017 C14.6033,17.3727 14.6973,17.2567 14.8253,17.2417 L17.9803,16.8777 C18.2733,16.8427 18.5343,16.6867 18.7153,16.4367 C18.9033,16.1787 18.9843,15.8567 18.9463,15.5257 L18.9303,15.3907 C18.8533,14.7167 18.2923,14.2247 17.6823,14.2947 L14.5273,14.6587 C14.3983,14.6737 14.2823,14.5817 14.2673,14.4527 C14.2513,14.3247 14.3453,14.2087 14.4733,14.1937 L17.6283,13.8287 C18.4953,13.7287 19.2883,14.4057 19.3963,15.3377 L19.4123,15.4717 C19.4333,15.6607 19.4263,15.8487 19.3913,16.0287" id="Fill-11" fill="#B57DFF"></path>
            <path d="M19.238,15.9989 C19.194,16.2239 19.103,16.4359 18.968,16.6199 C18.734,16.9419 18.396,17.1439 18.016,17.1869 L14.861,17.5519 C14.818,17.5569 14.779,17.5269 14.774,17.4839 C14.77,17.4409 14.801,17.4019 14.843,17.3969 L17.999,17.0319 C18.335,16.9929 18.634,16.8149 18.842,16.5279 C19.052,16.2399 19.144,15.8759 19.101,15.5079 L19.086,15.3729 C18.998,14.6129 18.36,14.0599 17.664,14.1399 L14.509,14.5039 C14.467,14.5089 14.427,14.4779 14.423,14.4359 C14.418,14.3929 14.448,14.3529 14.491,14.3489 L17.647,13.9839 C18.427,13.8939 19.143,14.5089 19.241,15.3549 L19.257,15.4899 C19.276,15.6629 19.269,15.8339 19.238,15.9989" id="Fill-13" fill="#E8BAFF"></path>
            <path d="M19.0486,12.1415 L19.0486,12.1415 C19.0406,12.1845 18.9986,12.2115 18.9566,12.2035 L14.8476,11.3955 C14.6166,11.3505 14.4656,11.1315 14.5086,10.9075 C14.5176,10.8645 14.5586,10.8375 14.6006,10.8455 C14.6426,10.8535 14.6706,10.8945 14.6616,10.9365 C14.6346,11.0775 14.7316,11.2135 14.8776,11.2425 L18.9866,12.0495 C19.0286,12.0585 19.0576,12.0995 19.0486,12.1415" id="Fill-15" fill="#E8BAFF"></path>
            <path d="M16.7536,11.6078 C16.7566,11.5918 16.7606,11.5778 16.7636,11.5618 L17.0616,10.0328 C17.1726,9.4638 16.7826,8.9068 16.1936,8.7928 C15.6036,8.6768 15.0316,9.0468 14.9216,9.6158 L14.6636,10.9378 C14.6366,11.0768 14.7326,11.2138 14.8796,11.2428 L16.7536,11.6078 Z M17.2146,10.0628 L16.9166,11.5918 C16.9076,11.6368 16.8966,11.6788 16.8846,11.7198 C16.8726,11.7588 16.8336,11.7828 16.7946,11.7748 L14.8496,11.3958 C14.6186,11.3508 14.4666,11.1318 14.5106,10.9078 L14.7686,9.5858 C14.8956,8.9328 15.5486,8.5078 16.2236,8.6388 C16.8976,8.7708 17.3416,9.4088 17.2146,10.0628 L17.2146,10.0628 Z" id="Fill-17" fill="#E8BAFF"></path>
            <path d="M10.9162,19.1747 L12.8262,18.1317 C11.3302,15.3787 10.7942,13.3167 11.2332,11.9957 L10.4622,10.5847 L5.7722,13.1477 L6.7682,14.9697 L7.5322,14.5527 L7.3942,14.3007 C7.2892,14.1087 7.3602,13.8667 7.5522,13.7617 L9.6872,12.5957 C9.8212,12.5217 9.9862,12.5327 10.1092,12.6227 C10.2342,12.7137 10.2952,12.8667 10.2672,13.0177 C9.6972,16.0337 10.5352,18.3357 10.9162,19.1747 M13.5562,18.6367 L10.9352,20.0697 C10.7462,20.1727 10.5112,20.1067 10.4022,19.9227 C10.3382,19.8117 8.9202,17.3487 9.3612,13.6777 L8.2812,14.2677 L8.4192,14.5197 C8.5242,14.7127 8.4532,14.9537 8.2602,15.0587 L6.8002,15.8567 C6.6082,15.9617 6.3672,15.8917 6.2622,15.6987 L4.8852,13.1797 C4.7802,12.9877 4.8512,12.7467 5.0432,12.6417 L10.4302,9.6977 C10.6222,9.5927 10.8642,9.6637 10.9692,9.8557 L12.0172,11.7747 C12.0762,11.8817 12.0822,12.0077 12.0342,12.1207 C11.7672,12.7447 11.6242,14.3377 13.6542,17.9887 L13.7142,18.0977 C13.8192,18.2907 13.7492,18.5317 13.5562,18.6367" id="Fill-19" fill="#7345FF"></path>
            <path d="M10.844,19.3954 L13.042,18.1944 C11.506,15.4034 10.942,13.2614 11.406,11.9814 L10.526,10.3694 L5.557,13.0844 L6.705,15.1854 L7.747,14.6164 L7.533,14.2244 C7.47,14.1094 7.513,13.9644 7.628,13.9014 L9.763,12.7344 C9.844,12.6904 9.943,12.6974 10.016,12.7514 C10.092,12.8054 10.128,12.8974 10.111,12.9884 C9.494,16.2524 10.503,18.6934 10.844,19.3954 M13.48,18.4974 L10.859,19.9294 C10.746,19.9914 10.605,19.9524 10.539,19.8414 C10.474,19.7304 9.004,17.1764 9.561,13.3884 L8.066,14.2054 L8.28,14.5964 C8.343,14.7114 8.3,14.8564 8.184,14.9194 L6.724,15.7174 C6.609,15.7804 6.464,15.7384 6.401,15.6234 L5.025,13.1034 C4.962,12.9884 5.004,12.8444 5.12,12.7814 L10.506,9.8374 C10.622,9.7744 10.766,9.8164 10.829,9.9324 L11.878,11.8514 C11.913,11.9154 11.917,11.9904 11.887,12.0584 C11.611,12.7084 11.453,14.3554 13.515,18.0664 L13.575,18.1744 C13.637,18.2894 13.595,18.4344 13.48,18.4974" id="Fill-21" fill="#B57DFF"></path>
            <path d="M10.7766,19.6127 L13.2576,18.2577 L13.2366,18.2207 C11.2436,14.6337 11.2286,12.8437 11.5806,11.9697 L10.5886,10.1547 L5.3416,13.0217 L6.6416,15.4007 L7.9626,14.6787 L7.6726,14.1487 C7.6516,14.1107 7.6656,14.0617 7.7046,14.0407 L9.8396,12.8737 C9.8656,12.8597 9.8996,12.8617 9.9236,12.8797 C9.9486,12.8977 9.9606,12.9287 9.9546,12.9587 C9.2756,16.5537 10.5406,19.1667 10.7766,19.6127 M13.4036,18.3577 L10.7826,19.7907 C10.7456,19.8107 10.6976,19.7977 10.6766,19.7607 C10.6596,19.7337 9.0886,17.0037 9.7696,13.0927 L7.8496,14.1417 L8.1396,14.6727 C8.1606,14.7107 8.1476,14.7587 8.1086,14.7807 L6.6486,15.5787 C6.6096,15.5997 6.5616,15.5847 6.5406,15.5467 L5.1646,13.0277 C5.1436,12.9887 5.1576,12.9417 5.1956,12.9207 L10.5826,9.9767 C10.6206,9.9557 10.6686,9.9697 10.6896,10.0087 L11.7376,11.9267 C11.7496,11.9477 11.7506,11.9737 11.7416,11.9957 C11.3886,12.8237 11.3856,14.5627 13.3756,18.1437 L13.4356,18.2507 C13.4566,18.2887 13.4426,18.3377 13.4036,18.3577" id="Fill-23" fill="#E8BAFF"></path>
            <path d="M8.5403,6.4686 C6.4533,7.6856 4.9633,9.6426 4.3483,11.9786 C3.0763,16.8016 5.9653,21.7606 10.7893,23.0326 C13.1253,23.6486 15.5633,23.3186 17.6503,22.1016 C19.7383,20.8846 21.2273,18.9276 21.8423,16.5916 C23.1143,11.7676 20.2243,6.8086 15.4013,5.5376 C13.0653,4.9216 10.6283,5.2516 8.5403,6.4686 M18.2153,23.0726 C15.8683,24.4396 13.1293,24.8116 10.5023,24.1196 C5.0803,22.6896 1.8323,17.1146 3.2603,11.6926 C3.9533,9.0656 5.6273,6.8656 7.9743,5.4976 C10.3213,4.1306 13.0603,3.7586 15.6883,4.4496 C21.1103,5.8796 24.3593,11.4546 22.9303,16.8776 C22.2373,19.5046 20.5623,21.7046 18.2153,23.0726" id="Fill-25" fill="#BBBDBF"></path>
            <g id="Group-29" transform="translate(0.000000, 0.380100)">
                <mask id="mask-2" fill="white">
                    <use xlink:href="#path-1"></use>
                </mask>
                <g id="Clip-28"></g>
                <path d="M29.2556,6.4626 C29.3816,6.3896 29.5286,6.3676 29.6706,6.4016 L31.0856,6.7446 L30.7346,5.3306 C30.6986,5.1836 30.7216,5.0296 30.8016,4.9006 L31.5636,3.6596 L30.1106,3.5576 C29.9606,3.5466 29.8196,3.4766 29.7226,3.3606 L28.7786,2.2516 L28.2326,3.6026 C28.1746,3.7426 28.0646,3.8546 27.9256,3.9116 L26.5776,4.4666 L27.6936,5.4046 C27.8096,5.5016 27.8816,5.6406 27.8926,5.7916 L28.0046,7.2426 L29.2406,6.4716 C29.2456,6.4686 29.2506,6.4656 29.2556,6.4626 M32.1386,7.9936 C32.0156,8.0656 31.8666,8.0886 31.7236,8.0546 L29.6356,7.5496 L27.8146,8.6876 C27.6276,8.8166 27.4386,8.8006 27.2626,8.7126 C27.0866,8.6246 26.9716,8.4506 26.9566,8.2546 L26.7896,6.1126 L25.1466,4.7306 C24.9956,4.6046 24.9226,4.4086 24.9516,4.2146 C24.9816,4.0216 25.1116,3.8536 25.2926,3.7816 L27.2786,2.9626 L28.0836,0.9716 C28.1576,0.7896 28.3206,0.6596 28.5146,0.6276 C28.7086,0.5956 28.9046,0.6686 29.0316,0.8176 L30.4256,2.4536 L32.5676,2.6046 C32.7636,2.6176 32.9386,2.7326 33.0276,2.9076 C33.1166,3.0826 33.1096,3.2916 33.0066,3.4586 L31.8816,5.2886 L32.4006,7.3726 C32.4476,7.5636 32.3926,7.7646 32.2536,7.9046 C32.2196,7.9396 32.1806,7.9686 32.1386,7.9936 M7.0706,3.5666 C4.3096,5.1756 2.3396,7.7636 1.5256,10.8546 C0.7106,13.9446 1.1476,17.1686 2.7566,19.9296 C4.3656,22.6916 6.9546,24.6606 10.0456,25.4746 C13.1366,26.2896 16.3596,25.8526 19.1206,24.2436 C21.8816,22.6336 23.8506,20.0456 24.6656,16.9556 C26.3476,10.5756 22.5256,4.0166 16.1456,2.3346 C13.0546,1.5206 9.8316,1.9576 7.0706,3.5666 M19.6866,25.2136 C16.6646,26.9746 13.1396,27.4536 9.7586,26.5626 C6.3776,25.6706 3.5456,23.5166 1.7856,20.4956 C0.0256,17.4746 -0.4534,13.9496 0.4386,10.5676 C1.3296,7.1876 3.4836,4.3556 6.5056,2.5946 C9.5256,0.8356 13.0506,0.3566 16.4326,1.2476 C23.4096,3.0876 27.5916,10.2626 25.7526,17.2416 C24.8606,20.6226 22.7066,23.4546 19.6866,25.2136" id="Fill-27" fill="#FFC400" mask="url(#mask-2)"></path>
            </g>
            <path d="M8.427,6.2748 C6.286,7.5218 4.761,9.5268 4.131,11.9208 C2.827,16.8648 5.789,21.9468 10.732,23.2498 C13.127,23.8808 15.623,23.5438 17.763,22.2958 C19.903,21.0488 21.428,19.0428 22.06,16.6488 C23.363,11.7048 20.402,6.6238 15.458,5.3198 C13.064,4.6888 10.567,5.0278 8.427,6.2748 M18.102,22.8778 C15.807,24.2148 13.129,24.5788 10.56,23.9028 C5.258,22.5038 2.081,17.0528 3.478,11.7498 C4.156,9.1808 5.792,7.0298 8.088,5.6918 C10.383,4.3548 13.061,3.9908 15.631,4.6678 C20.933,6.0668 24.11,11.5178 22.713,16.8198 C22.035,19.3888 20.397,21.5408 18.102,22.8778" id="Fill-30" fill="#E6E7E8"></path>
            <path d="M8.3137,6.0804 C6.1217,7.3574 4.5587,9.4114 3.9137,11.8644 C2.5787,16.9274 5.6107,22.1324 10.6747,23.4674 C13.1267,24.1144 15.6847,23.7674 17.8767,22.4894 C20.0667,21.2124 21.6317,19.1584 22.2777,16.7054 C23.6127,11.6424 20.5797,6.4374 15.5157,5.1024 C13.0637,4.4554 10.5047,4.8034 8.3137,6.0804 M17.9887,22.6844 C15.7457,23.9914 13.1277,24.3474 10.6167,23.6844 C5.4337,22.3184 2.3287,16.9904 3.6947,11.8074 C4.3567,9.2964 5.9567,7.1934 8.2007,5.8864 C10.4437,4.5784 13.0617,4.2234 15.5727,4.8854 C20.7567,6.2514 23.8607,11.5804 22.4947,16.7634 C21.8327,19.2744 20.2327,21.3764 17.9887,22.6844" id="Fill-32" fill="#FFFFFF"></path>
            <path d="M29.3689,7.037 C29.4439,6.993 29.5319,6.98 29.6179,7 L31.3929,7.43 L30.9529,5.657 C30.9309,5.569 30.9459,5.476 30.9929,5.398 L31.9489,3.842 L30.1269,3.713 C30.0369,3.706 29.9519,3.664 29.8929,3.596 L28.7089,2.204 L28.0229,3.898 C27.9889,3.983 27.9239,4.05 27.8399,4.084 L26.1489,4.781 L27.5499,5.956 C27.6189,6.015 27.6619,6.098 27.6689,6.188 L27.8099,8.01 L29.3589,7.042 C29.3629,7.04 29.3649,7.039 29.3689,7.037 M32.0249,8.18 C31.9509,8.223 31.8629,8.236 31.7759,8.216 L29.5979,7.689 L27.6959,8.877 C27.5789,8.933 27.4709,8.945 27.3639,8.891 C27.2599,8.838 27.1889,8.734 27.1809,8.617 L27.0079,6.382 L25.2909,4.938 C25.1999,4.864 25.1559,4.746 25.1749,4.629 C25.1919,4.513 25.2689,4.414 25.3789,4.369 L27.4519,3.514 L28.2929,1.435 C28.3359,1.327 28.4319,1.249 28.5519,1.229 C28.6669,1.211 28.7849,1.254 28.8619,1.343 L30.3149,3.051 L32.5519,3.208 C32.6699,3.216 32.7739,3.286 32.8279,3.391 C32.8819,3.495 32.8769,3.621 32.8149,3.721 L31.6409,5.631 L32.1829,7.807 C32.2119,7.921 32.1789,8.042 32.0949,8.126 C32.0739,8.147 32.0509,8.165 32.0249,8.18 M6.9579,3.752 C4.1439,5.391 2.1379,8.028 1.3079,11.177 C0.4779,14.326 0.9229,17.61 2.5619,20.423 C4.2019,23.236 6.8399,25.243 9.9889,26.073 C13.1369,26.902 16.4199,26.457 19.2339,24.817 C22.0469,23.178 24.0529,20.541 24.8829,17.393 C26.5969,10.893 22.7029,4.211 16.2019,2.498 C13.0539,1.667 9.7709,2.113 6.9579,3.752 M19.5729,25.4 C16.6029,27.13 13.1389,27.601 9.8159,26.725 C6.4939,25.849 3.7099,23.732 1.9789,20.763 C0.2499,17.794 -0.2201,14.328 0.6559,11.006 C1.5319,7.683 3.6489,4.9 6.6189,3.169 C9.5869,1.439 13.0519,0.969 16.3749,1.846 C23.2329,3.654 27.3429,10.705 25.5349,17.564 C24.6589,20.887 22.5419,23.67 19.5729,25.4" id="Fill-34" fill="#FFEC4A"></path>
            <path d="M29.4822,7.2308 C29.5072,7.2158 29.5382,7.2108 29.5652,7.2188 L31.7012,7.7358 L31.1702,5.6018 C31.1642,5.5728 31.1682,5.5428 31.1842,5.5158 L32.3362,3.6438 L30.1432,3.4888 C30.1122,3.4868 30.0842,3.4728 30.0642,3.4498 L28.6392,1.7758 L27.8152,3.8138 C27.8052,3.8408 27.7782,3.8658 27.7532,3.8758 L25.7212,4.7138 L27.4052,6.1278 C27.4272,6.1478 27.4432,6.1758 27.4442,6.2058 L27.6142,8.3978 L29.4782,7.2328 L29.4822,7.2308 Z M31.9122,7.9848 C31.8862,8.0008 31.8572,8.0038 31.8292,7.9978 L29.5572,7.4488 L27.5772,8.6858 L27.5732,8.6878 C27.5402,8.7068 27.4992,8.7088 27.4662,8.6908 C27.4302,8.6738 27.4072,8.6388 27.4042,8.5998 L27.2242,6.2698 L25.4352,4.7668 C25.4052,4.7418 25.3892,4.7028 25.3962,4.6638 C25.4022,4.6248 25.4332,4.5908 25.4642,4.5768 L27.6252,3.6868 L28.5022,1.5198 C28.5142,1.4838 28.5462,1.4578 28.5862,1.4508 C28.6262,1.4448 28.6652,1.4598 28.6902,1.4888 L30.2052,3.2678 L32.5362,3.4328 C32.5762,3.4358 32.6102,3.4578 32.6282,3.4928 C32.6452,3.5278 32.6452,3.5698 32.6242,3.6038 L31.4002,5.5938 L31.9642,7.8608 C31.9742,7.8998 31.9622,7.9398 31.9352,7.9668 C31.9282,7.9748 31.9202,7.9808 31.9122,7.9848 L31.9122,7.9848 Z M6.8452,3.5578 C3.9792,5.2278 1.9352,7.9138 1.0902,11.1198 C0.2442,14.3268 0.6982,17.6708 2.3682,20.5358 C4.0382,23.4008 6.7232,25.4448 9.9312,26.2898 C13.1372,27.1358 16.4812,26.6818 19.3472,25.0108 C22.2112,23.3418 24.2552,20.6568 25.0992,17.4498 C26.8452,10.8298 22.8792,4.0248 16.2592,2.2798 C13.0532,1.4348 9.7092,1.8888 6.8452,3.5578 L6.8452,3.5578 Z M19.4602,25.2058 C16.5432,26.9058 13.1382,27.3678 9.8732,26.5068 C6.6082,25.6458 3.8732,23.5668 2.1732,20.6488 C0.4732,17.7318 0.0122,14.3278 0.8732,11.0628 C1.7332,7.7978 3.8142,5.0638 6.7322,3.3638 C9.6482,1.6648 13.0522,1.2018 16.3182,2.0628 C23.0552,3.8398 27.0932,10.7678 25.3182,17.5068 C24.4572,20.7718 22.3762,23.5058 19.4602,25.2058 L19.4602,25.2058 Z" id="Fill-36" fill="#FFFFFF"></path>
        </g>
    </g>
</svg>